<?xml version="1.0" standalone="no"?>
<!DOCTYPE svg PUBLIC "-//W3C//DTD SVG 20010904//EN"
 "http://www.w3.org/TR/2001/REC-SVG-20010904/DTD/svg10.dtd">
<svg version="1.0" xmlns="http://www.w3.org/2000/svg"
 width="495.000000pt" height="495.000000pt" viewBox="0 0 495.000000 495.000000"
 preserveAspectRatio="xMidYMid meet">
<metadata>
Created by potrace 1.11, written by Peter Selinger 2001-2013
</metadata>
<g transform="translate(0.000000,495.000000) scale(0.100000,-0.100000)"
fill="#000000" stroke="none">
<path d="M1328 4656 c-1 -2 -41 -6 -88 -10 -382 -27 -750 -287 -938 -662 -57
-114 -115 -295 -127 -394 -2 -14 -6 -47 -10 -75 -14 -106 -5 -294 20 -430 35
-181 141 -412 253 -550 21 -26 132 -149 202 -225 14 -15 66 -71 115 -125 50
-54 95 -103 100 -109 6 -6 17 -22 26 -36 17 -26 336 -376 493 -540 50 -53 186
-199 301 -324 116 -126 215 -234 220 -240 6 -6 59 -65 120 -131 60 -66 137
-149 171 -185 33 -36 109 -118 168 -182 l107 -117 42 47 c23 26 69 76 103 112
52 56 146 158 179 196 15 16 209 227 290 314 67 72 207 225 325 354 30 33 96
103 146 156 134 140 434 469 469 514 42 53 54 67 158 180 51 54 99 107 107
116 8 9 53 58 99 108 211 230 315 439 366 731 15 86 21 287 10 361 -3 19 -7
53 -10 76 -8 71 -53 227 -89 313 -114 271 -325 506 -561 624 -126 63 -241 103
-330 113 -16 2 -40 6 -53 9 -27 7 -217 7 -252 1 -14 -3 -42 -7 -62 -10 -76
-12 -216 -58 -303 -101 -270 -134 -498 -395 -605 -695 -25 -70 -40 -95 -40
-66 0 41 -99 251 -164 347 -59 89 -78 111 -166 200 -191 190 -434 305 -685
324 -44 4 -85 8 -92 10 -6 2 -13 2 -15 1z"/>
</g>
</svg>
